<?xml version="1.0" encoding="UTF-8"?>
<svg width="700pt" height="700pt" version="1.1" viewBox="0 0 700 700" xmlns="http://www.w3.org/2000/svg">
 <path d="m566.65 316.23c0 0.69922-0.17578 1.2266-0.17578 1.75 0 0.52344 0.17578 1.0508 0.17578 1.5742zm-12.422-108.33h-129.68c-15.75 0-28.352-12.773-28.352-28.352v-54.598c0-32.023-26.426-57.75-58.625-56.699-14.875 0.52344-26.602 13.477-26.602 28.352v56.875c0 40.25-56.875 68.602-56.875 97.125v181.65c0 10.5 5.7734 20.125 15.051 25.023 5.25 2.8008 11.375 5.9492 17.676 9.4492 30.977 16.625 65.625 25.199 100.62 25.199h109.9c22.574 0 40.773-18.199 40.773-40.773v-3.6758c0-6.8242-1.75-13.125-4.7266-18.727 11.375-7.1758 18.898-19.773 18.898-34.301v-10.852c0-11.551-4.7266-21.699-12.426-29.227 14.875-5.6016 25.727-19.602 26.426-36.227-0.35156-9.625-4.1992-18.375-10.148-25.199 21.523-1.0508 38.676-18.727 38.676-40.602l0.003907-3.8398c0.17578-22.398-18.023-40.602-40.598-40.602zm-342.65 14.176h-99.398c-4.0273 0-7.1758 3.1523-7.1758 7v227.32c0 3.8516 3.1484 7.1758 7.1758 7.1758h99.398c3.8516 0 7.1758-3.1484 7.1758-7.1758v-227.32c-0.17578-3.8477-3.3242-7-7.1758-7zm-49.699 198.8c-11.727 0-21.352-9.625-21.352-21.352 0-11.727 9.625-21.352 21.352-21.352s21.352 9.625 21.352 21.352c-0.17578 11.727-9.625 21.352-21.352 21.352z"/>
</svg>
